# xmcd CD database file
#
# Track frame offsets:
#	225
#	18634
#	31834
#	50310
#	68963
#	84389
#	101927
#	118625
#	134238
#	148390
#	161751
#
# Disc length: 2346 seconds
#
# Revision: 0
# Processed by: cddbd v1.5.2PL0 Copyright (c) Steve Scherf et al.
# Submitted via: CDex 1.95
#
DISCID=a509270b
DTITLE=Alan Jackson - Drive
DYEAR=2002
DGENRE=Country
TTITLE0=Alan Jackson - Drive (For Daddy Gene)
TTITLE1=Alan Jackson - A Little Bluer Than That
TTITLE2=Alan Jackson - Bring On The Night
TTITLE3=Alan Jackson - Work In Progress
TTITLE4=Alan Jackson - The Sounds
TTITLE5=Alan Jackson - Designated Drinker
TTITLE6=Alan Jackson - That'd Be Alright
TTITLE7=Alan Jackson - Once In A Lifetime Love
TTITLE8=Alan Jackson - When Love Comes Around
TTITLE9=Alan Jackson - I Slipped And Fell In Love
TTITLE10=Alan Jackson - First Love
EXTD=YEAR: 2002
EXTT0=
EXTT1=
EXTT2=
EXTT3=
EXTT4=
EXTT5=
EXTT6=
EXTT7=
EXTT8=
EXTT9=
EXTT10=
PLAYORDER=
